<svg width="0" height="0" class="hidden">
  <symbol fill="none" xmlns="http://www.w3.org/2000/svg" viewBox="0 0 48 16" id="Button arrow">
    <path d="M39.5 0.243164C39.5001 2.46282 41.28 4.20486 43.251 5.4375C44.2171 6.04166 45.1874 6.4966 45.918 6.80078C46.2824 6.95249 46.586 7.06543 46.7969 7.14062C46.9023 7.17822 46.9848 7.20722 47.04 7.22559C47.0671 7.23458 47.088 7.24077 47.1016 7.24512C47.1083 7.24726 47.1141 7.24903 47.1172 7.25L47.1201 7.25195L47.1211 8.20605H47.1182L47.041 8.23242C46.9858 8.251 46.903 8.27852 46.7979 8.31641C46.587 8.39238 46.2842 8.50719 45.9199 8.66016C45.1892 8.96705 44.2183 9.42531 43.252 10.0332C41.2807 11.2733 39.5001 13.0228 39.5 15.2432H38.5C38.5001 12.4636 40.7053 10.4547 42.7197 9.1875C43.3057 8.81888 43.8917 8.5058 44.4277 8.24316H0V7.24316H44.4736C43.9254 6.97871 43.3228 6.66168 42.7207 6.28516C40.7061 5.02517 38.5001 3.02332 38.5 0.243164H39.5Z" fill="white"></path>
  </symbol>
  <symbol fill="none" xmlns="http://www.w3.org/2000/svg" viewBox="0 0 60 52" id="Brunch">
    <path fill-rule="evenodd" clip-rule="evenodd" d="M36.3836 1.05776C37.0953 1.03589 37.3037 1.33992 37.4373 1.43374C37.6787 1.66937 37.7337 1.78386 37.8153 1.89956C37.9588 2.12067 38.0532 2.28687 38.1512 2.44448C38.3387 2.75214 38.5266 3.00385 38.66 3.11636C39.8462 4.23615 40.4615 5.45417 41.076 6.64761C41.1735 6.84358 41.2677 7.041 41.3602 7.23745C42.0286 8.71252 42.5509 10.1197 42.6453 12.008C42.2623 14.4306 41.3037 15.4134 40.3953 16.8927C40.3205 16.9978 40.2432 17.0971 40.1688 17.1955C41.3451 17.7554 42.5057 18.3459 43.6649 18.9796C43.9009 19.1103 44.1372 19.2456 44.3739 19.3849C45.7023 20.14 47.0354 21.2069 48.0653 22.3244C48.3037 22.5782 48.5363 22.8345 48.7664 23.091C48.788 22.6935 48.8401 22.3232 48.8807 21.921C48.9375 21.4635 49.0078 21.0089 49.0877 20.5568C49.3584 19.1458 49.8667 17.8781 50.3133 16.6515C50.6757 15.5633 51.5084 14.514 52.244 13.798C53.5794 12.3892 55.4972 11.7554 56.8924 11.1691C57.1135 11.0762 57.3357 10.9945 57.5955 10.9249C57.7267 10.8907 57.8652 10.8591 58.0448 10.838C58.2395 10.8343 58.4068 10.7497 58.9559 10.9591C59.5106 11.1779 59.8814 11.838 59.9344 12.2062C60.0136 12.5965 59.9887 12.8696 59.9657 13.1124C59.91 13.5911 59.8074 13.9604 59.7088 14.3195C59.5109 15.0218 59.2844 15.6775 59.1873 16.1945C59.0758 16.774 58.8791 17.2389 58.6873 17.6593C58.5446 17.9676 58.3975 18.2541 58.2489 18.5343C57.2499 20.0057 56.5265 20.8096 55.6727 21.9308C54.4258 23.5134 52.8801 24.5658 51.4159 25.5519C51.2986 25.6331 51.169 25.7145 51.0311 25.7941C51.368 26.2215 51.7012 26.6526 52.0311 27.089C52.9323 28.23 53.7972 29.7525 54.285 31.1378C55.7297 33.965 56.4775 37.8444 55.9881 41.1701C55.7093 43.8982 54.477 46.4382 52.9539 48.5412C52.246 49.5386 51.4895 50.4802 50.7381 51.4162C50.6619 51.5107 50.5534 51.5753 50.4325 51.5929C50.3112 51.6105 50.1876 51.5808 50.0897 51.5089C49.9917 51.437 49.9256 51.3281 49.9061 51.2072C49.8866 51.0862 49.9156 50.9616 49.9832 50.8605C50.6503 49.8637 51.3171 48.8756 51.9198 47.8673C53.2252 45.7218 54.1265 43.4249 54.2313 41.0187C54.4405 37.7791 53.8152 34.9804 52.2108 31.9708C51.967 31.3723 51.7066 30.8417 51.4129 30.3351C51.4112 30.3605 51.4111 30.3863 51.409 30.4123C51.3405 30.8472 51.2538 31.3157 51.0555 31.8332C50.8524 32.3239 50.532 33.0309 49.6297 33.4298C49.3408 33.5612 48.8599 33.8118 48.4354 34.0089C47.8888 34.2628 47.3285 34.509 46.6688 34.7042C46.3331 34.7972 45.9856 34.8941 45.4764 34.8996C45.2168 34.892 44.8814 34.8847 44.4393 34.6339C43.9761 34.3889 43.666 33.7674 43.6453 33.4015C43.5912 32.5521 43.351 31.7596 43.7313 30.4308C44.3828 28.9161 44.7118 27.6154 46.1014 25.963C46.4118 25.7289 46.7368 25.5122 47.0799 25.3195C47.1662 25.2721 47.2521 25.2262 47.3387 25.1818C46.9888 24.7928 46.6356 24.4112 46.2791 24.0402C45.3037 23.0179 44.3226 22.2416 43.1063 21.5392C42.892 21.4131 42.6732 21.2883 42.452 21.1652C42.0073 20.9207 41.5567 20.6797 41.1024 20.4416C41.551 21.7826 41.9778 23.1223 42.3621 24.5148C42.4552 24.8599 42.5466 25.2049 42.6307 25.5783C42.6998 25.9576 42.8421 26.3386 42.7469 27.0753C42.6298 27.7997 42.4599 28.5096 42.1854 29.2335C41.9115 29.9012 41.6262 30.612 40.8201 31.296C39.8052 32.072 38.8558 32.5615 37.8065 33.0568C37.7245 33.0891 37.4577 33.2426 37.0164 33.2023C36.566 33.1576 36.2477 32.8859 36.1131 32.7277C35.8376 32.3911 35.8052 32.2158 35.7401 32.048C35.2065 30.4257 34.8267 28.688 34.7606 26.9328C34.7226 25.7365 34.6909 24.5701 34.8309 23.2873C34.9983 21.9606 35.2389 20.4658 35.994 19.1798C36.0538 19.0771 36.1148 18.9763 36.1776 18.8761C36.3184 18.6586 36.4549 18.4524 36.5994 18.2511C36.4785 18.1967 36.358 18.1418 36.2371 18.088C35.0325 17.5586 33.9837 17.1652 32.744 16.9914C31.5342 16.8025 30.271 16.662 29.0604 16.5978C28.5707 16.5559 28.0549 16.5955 27.5213 16.6818C27.5895 16.8925 27.6401 17.107 27.6854 17.3664C27.9795 19.2703 27.7271 20.9753 27.6287 22.6642C27.4915 23.8827 27.5479 24.925 26.8377 26.5158C26.3999 27.3031 25.9153 28.0254 25.2176 28.7257C25.0078 28.9298 24.7797 29.1345 24.4627 29.3341C24.0514 29.571 23.7281 30.0673 22.9295 30.8234C22.8228 30.9043 22.6587 31.0892 22.1922 31.1759C21.9633 31.215 21.6694 31.1768 21.4608 31.0832C21.2489 30.9916 21.1136 30.8753 21.0203 30.7824C20.6841 30.4072 20.6797 30.2516 20.6121 30.0939C20.3106 29.166 19.9648 28.1447 19.9403 26.9406C19.9522 25.2538 19.8377 23.5839 20.3934 21.6515C20.7913 20.5589 21.0581 19.5428 21.8924 18.3429C21.9673 18.2495 22.048 18.1537 22.1317 18.0558C20.6314 18.4687 19.1289 18.885 17.6258 19.3029C17.6184 19.4448 17.6078 19.5862 17.5887 19.7257L17.5672 19.8019C17.5226 19.9685 17.4771 20.1397 17.4246 20.3195C17.2372 21.2296 16.398 22.2211 15.6024 22.6837C14.1845 23.601 12.6002 24.1432 11.0018 24.4777C9.81334 24.7197 8.64125 24.8474 7.44808 24.9044C6.72375 24.9091 6.23084 25.0634 5.04183 24.8361C4.07533 24.583 2.96945 24.4295 1.71077 23.9406C1.51116 23.8544 1.30937 23.7706 1.02523 23.5695C0.88509 23.4608 0.703215 23.3353 0.503742 22.9992C0.27627 22.6857 0.252169 21.9094 0.485187 21.5666C0.964069 20.6454 1.69569 19.4241 2.86507 18.7003C4.96083 17.7355 6.36319 17.5385 8.11116 17.1007C8.79495 16.9046 9.91043 16.8331 10.5916 16.9181C11.9407 17.019 13.2903 17.1236 14.6668 17.3195C14.8202 17.3425 14.973 17.367 15.1258 17.3927C15.7302 17.4982 16.3058 17.6004 16.9491 17.8087C16.9809 17.8206 17.0113 17.8356 17.0399 17.8537C19.0966 17.129 21.1595 16.418 23.2381 15.7345C23.2032 15.7258 23.1684 15.7168 23.1336 15.7082C22.4392 15.5366 21.7414 15.3768 21.0467 15.2374C19.0343 14.7076 17.6735 13.4722 16.4139 12.0949C15.2406 10.5151 14.9182 9.09675 14.3748 7.66714C14.2314 7.25227 14.1188 6.81636 14.0623 6.3439C14.0348 6.10701 14.0214 5.86195 14.034 5.5939C14.0408 5.45879 14.0533 5.31867 14.0828 5.15835C14.0981 5.07759 14.1171 4.99018 14.1502 4.88393C14.1999 4.76364 14.1767 4.69326 14.4315 4.35073C14.746 3.98599 15.0789 3.91477 15.2596 3.87808C15.4482 3.84595 15.57 3.85235 15.6639 3.85659C15.8557 3.86896 15.9774 3.89448 16.0897 3.91811C16.309 3.96695 16.4786 4.01905 16.6444 4.07046C16.9711 4.17344 17.2647 4.27606 17.5565 4.37612C18.1371 4.57641 18.6967 4.76389 19.2567 4.923C19.3057 4.93696 19.3537 4.95149 19.4022 4.96597C20.5353 5.2901 21.6811 5.89123 22.5877 6.56265C24.0017 7.62114 24.8394 8.87185 25.6893 10.0597C26.6466 11.4375 27.1688 12.9771 27.4022 14.5314C27.9479 14.4366 28.518 14.3825 29.1229 14.3957C30.4672 14.4168 31.7551 14.5181 33.077 14.6847C34.0255 14.7838 35.0083 15.0475 35.9256 15.3683C35.8837 15.2894 35.8409 15.2114 35.7996 15.133C35.5734 14.7042 35.3493 14.2722 35.1297 13.839C34.3548 12.2688 33.7085 10.603 33.6473 8.65054C33.628 7.19328 33.8216 5.74363 34.1463 4.35366C34.4127 3.27905 34.9254 2.43367 35.3787 1.6935C35.4374 1.60348 35.499 1.51008 35.6444 1.37905C35.7782 1.25744 36.0496 1.08617 36.3836 1.05776ZM47.7879 26.3302C47.5408 26.551 47.3067 26.7909 47.0828 27.0421C46.6602 27.917 46.1739 29.706 45.7977 31.1056C45.7569 31.3084 45.8092 31.8059 45.8924 32.3546C45.9103 32.349 45.9293 32.345 45.9471 32.339C46.3862 32.1945 46.8801 31.9757 47.3748 31.7443C47.7822 31.5565 48.1202 31.3766 48.6561 31.1476C48.6866 31.114 48.7495 31.0369 48.8016 30.9093C48.9102 30.6714 49.0035 30.3406 49.0858 29.9767C49.1782 29.9268 48.9648 28.9833 48.8075 28.3136C48.7657 28.1337 48.7249 27.9522 48.6834 27.7707C48.6468 27.8193 48.6094 27.8674 48.5721 27.9152C48.5345 28.0049 48.5014 28.0951 48.4735 28.1857C48.4228 28.3519 48.391 28.5061 48.3729 28.7062V28.7208C48.3428 28.9166 48.3387 29.0966 48.3397 29.3175C48.3406 29.4353 48.3052 29.5535 48.2303 29.6466C48.1553 29.7398 48.0476 29.8005 47.9315 29.8156C47.8157 29.8303 47.6974 29.7994 47.6014 29.7287C47.5052 29.6578 47.4401 29.5527 47.411 29.4386C47.3567 29.2224 47.2993 28.9647 47.2801 28.7199L47.2811 28.7335C47.249 28.5101 47.2358 28.2369 47.2557 27.9845C47.2714 27.7727 47.305 27.5656 47.3514 27.3644L47.4246 27.2101C47.5714 26.9128 47.7004 26.6109 47.8123 26.3087C47.8043 26.3159 47.7959 26.323 47.7879 26.3302ZM37.2635 19.4621C37.2203 19.5581 37.179 19.6555 37.1385 19.7531C36.6751 20.8685 36.6131 22.098 36.5858 23.424C36.5803 24.4722 36.7086 25.6438 36.8368 26.7736C36.9819 28.0015 37.2794 29.2017 37.6785 30.3927C38.2563 30.0642 38.8169 29.712 39.2606 29.3576C39.4068 29.2491 39.678 28.8078 39.8494 28.34C40.0448 27.828 40.1934 27.2472 40.2948 26.6691C40.308 26.709 40.2843 26.3907 40.2186 26.091C40.1563 25.7814 40.078 25.4491 39.9989 25.1164C39.7169 23.9583 39.4028 22.7739 39.0877 21.5929C39.0723 22.139 39.0442 22.685 38.9901 23.2179L38.9842 24.1681C38.9863 24.4711 38.9942 24.7736 39.0057 25.0763C39.0221 25.4469 39.041 25.821 39.0594 26.1955C39.0652 26.3152 39.0295 26.4356 38.9539 26.5304C38.8783 26.6251 38.7697 26.6872 38.6512 26.7023C38.5325 26.7172 38.4111 26.6836 38.3143 26.6105C38.2178 26.5375 38.1528 26.4308 38.1287 26.3136C38.0538 25.9459 37.9792 25.5765 37.908 25.2013C37.8509 24.8918 37.7983 24.5779 37.7528 24.2638C37.7026 23.9189 37.6602 23.5757 37.6209 23.2335V23.1789C37.5826 21.9061 37.4296 20.7123 37.286 19.4152C37.2788 19.4309 37.2705 19.4464 37.2635 19.4621ZM24.7567 17.6164C24.619 17.7158 24.4847 17.8192 24.3543 17.9259C23.9016 18.2982 23.5862 18.7407 23.2196 19.3195C22.8499 19.9999 22.556 21.1811 22.3035 22.2062C22.0372 23.516 22.1896 25.2294 22.2772 26.8576C22.2956 27.1447 22.352 27.4483 22.4325 27.7648C22.6403 27.5728 22.8739 27.3825 23.1395 27.215C23.216 27.1674 23.3432 27.0636 23.4657 26.9425C23.8981 26.5141 24.3304 25.9104 24.6746 25.3097C24.9432 24.8038 25.1438 23.4869 25.2733 22.4318C25.3573 21.6604 25.469 20.8879 25.5565 20.1369C25.5173 20.2284 25.4773 20.3196 25.4383 20.4113L25.12 21.2023C25.0151 21.4669 24.9144 21.7285 24.826 21.9845C24.7834 22.1091 24.7441 22.2347 24.7059 22.3634L24.7108 22.3361C24.5929 22.8211 24.4911 23.3474 24.3846 23.8624C24.3604 23.9796 24.2965 24.0873 24.2 24.1603C24.1034 24.2333 23.9826 24.2668 23.8641 24.2521C23.7456 24.2372 23.6371 24.1748 23.5614 24.0802C23.4857 23.9856 23.4495 23.8659 23.4549 23.7462C23.4805 23.2171 23.5006 22.6952 23.5526 22.1417L23.5584 22.1144C23.5796 21.9689 23.6036 21.8207 23.6317 21.674C23.7504 21.0649 23.9031 20.5027 24.0506 19.9367L24.0545 19.9249C24.2458 19.2487 24.4466 18.5747 24.6639 17.9015C24.6947 17.8064 24.7252 17.7111 24.7567 17.6164ZM57.3778 13.5021C55.8846 14.0333 54.649 14.4228 53.6737 15.3039C52.906 15.9688 52.3809 16.5202 51.994 17.3517C51.437 18.5206 50.8598 19.639 50.4891 20.7609C51.0977 19.8954 51.7466 19.053 52.495 18.2541C52.6312 18.1118 52.7745 17.969 52.9334 17.8253C53.3603 17.4568 53.793 17.1074 54.2235 16.7619C54.3172 16.6867 54.4362 16.6454 54.5575 16.6515C54.6788 16.6577 54.7933 16.7109 54.8748 16.799C54.956 16.8869 55 17.0039 54.9969 17.1251C54.9938 17.2467 54.9434 17.3626 54.8612 17.4503C54.4837 17.8528 54.1074 18.2511 53.7547 18.6476C53.6478 18.7733 53.539 18.9124 53.4354 19.0529C52.6305 20.1653 51.9325 21.423 51.2674 22.6769C51.2177 22.799 51.167 22.9208 51.1151 23.0421C52.1296 22.2328 53.065 21.4031 53.741 20.4738C54.5026 19.4212 55.504 18.1271 56.0399 17.3693C56.1757 17.1099 56.3056 16.8542 56.4188 16.6095C56.5731 16.2769 56.6915 15.965 56.7371 15.7277C56.9082 14.8947 57.1581 14.2496 57.3426 13.63C57.3555 13.5877 57.3655 13.544 57.3778 13.5021ZM14.5692 18.6203C13.2574 18.6363 11.9054 18.7118 10.5614 18.7648C9.7625 18.7872 9.39227 18.8519 8.65999 19.1027C7.13147 19.6054 5.19293 20.2277 4.20003 20.713C3.80503 20.9868 3.49576 21.3484 3.20101 21.8156C3.92182 22.0382 4.79868 22.2211 5.71468 22.4845C5.72402 22.5022 6.09636 22.5365 6.39632 22.5392C6.71527 22.5459 7.05759 22.5454 7.40218 22.548C8.48693 22.5547 9.59595 22.5097 10.658 22.3878C12.0993 22.2169 13.5313 21.8886 14.8065 21.2863C15.5156 20.9447 15.9425 20.6242 16.2694 19.8859C16.3056 19.8096 16.3402 19.7298 16.3768 19.6486C15.3323 19.9385 14.2882 20.2303 13.243 20.5167C13.0434 20.5717 12.8433 20.6268 12.6493 20.6798C11.6872 20.9434 10.7426 21.1999 9.76351 21.464C9.64542 21.4933 9.51911 21.4785 9.41195 21.4191C9.30484 21.3597 9.22471 21.2612 9.19027 21.1447C9.15588 21.028 9.16958 20.9012 9.22738 20.7931C9.28518 20.6851 9.38286 20.6041 9.49788 20.5646C10.4125 20.23 11.3587 19.8862 12.2909 19.549C12.4798 19.4805 12.6743 19.4101 12.869 19.34C13.5376 19.0992 14.2068 18.8592 14.8758 18.6203C14.7739 18.6198 14.6715 18.6198 14.5692 18.6203ZM36.5262 4.381C36.4389 4.56468 36.3664 4.74388 36.3123 4.91811C35.9413 6.16716 35.6804 7.42879 35.5858 8.70327C35.4936 10.1334 35.8842 11.7602 36.4285 13.2755C36.5926 13.7266 36.7585 14.1786 36.9256 14.6291C37.004 14.8413 37.0824 15.0513 37.161 15.2609C37.1557 15.1385 37.1511 15.0166 37.1453 14.8976L37.1561 14.9679C37.0094 13.8769 36.9726 12.8054 36.9832 11.7453L37.0076 10.7082C37.0085 10.6046 37.0094 10.5003 37.0086 10.3966C37.0039 9.69897 36.9573 8.9929 36.9012 8.27749C36.8919 8.15782 36.9247 8.03637 36.9979 7.9396C37.0712 7.84271 37.1792 7.77791 37.2977 7.75991C37.4159 7.7421 37.537 7.77249 37.6356 7.84292C37.7342 7.91365 37.8013 8.0198 37.828 8.13686C37.9882 8.84476 38.1373 9.56662 38.2391 10.3048C38.2543 10.4143 38.2688 10.5241 38.2821 10.6339L38.283 10.6535C38.4113 12.0182 38.5729 13.3756 38.8778 14.6486L38.8866 14.7189C38.9031 14.8361 38.919 14.952 38.9354 15.0666C39.5588 13.9465 40.1892 12.6237 40.2323 12.0119C40.1439 10.9472 39.6765 9.5018 39.1014 8.30581C39.0144 8.12292 38.926 7.94042 38.8368 7.76089C38.2942 6.67567 37.6823 5.57786 37.0008 4.91909C36.8112 4.73814 36.6574 4.55729 36.5262 4.381ZM16.6131 6.94058C17.0407 8.34333 17.4484 9.92161 18.0213 10.8146C18.9285 12.0299 20.1645 13.2762 21.4403 13.7658C22.1435 14.0006 22.834 14.2593 23.5155 14.5343C24.0149 14.7384 24.4907 14.9368 24.991 15.173C25.0147 15.1654 25.0386 15.1582 25.0623 15.1505C24.8163 14.8407 24.5614 14.5348 24.2909 14.2248L24.3006 14.2345C23.6634 13.5312 23.0142 12.8236 22.37 12.1154C21.9236 11.6252 21.477 11.1345 21.0321 10.6417C20.9518 10.5528 20.9038 10.4368 20.9022 10.3156C20.9005 10.1943 20.945 10.0772 21.0272 9.99038C21.1092 9.90393 21.2228 9.85394 21.3436 9.84878C21.4645 9.8437 21.5824 9.88518 21.6756 9.96011C22.1927 10.3778 22.7084 10.7983 23.2205 11.2218C23.6185 11.5511 24.0152 11.8832 24.41 12.2169C24.2412 11.9355 24.0595 11.6666 23.8612 11.4171C22.9901 10.3188 22.0976 9.21088 21.1746 8.57534C20.3593 8.01127 19.593 7.62853 18.6873 7.36147C18.6489 7.34999 18.6094 7.33851 18.5701 7.32729C17.9347 7.14599 17.3193 6.93384 16.7293 6.71987C16.6657 6.69688 16.6019 6.67346 16.5389 6.65054C16.5607 6.74621 16.5847 6.84358 16.6131 6.94058ZM16.4666 5.63979C16.4675 5.63724 16.4677 5.63422 16.4696 5.631C16.4746 5.61252 16.472 5.61668 16.4696 5.62612C16.4685 5.6299 16.4678 5.63454 16.4666 5.63979Z" fill="white"></path>
  </symbol>
  <symbol fill="none" xmlns="http://www.w3.org/2000/svg" viewBox="0 0 30 22" id="Heart">
    <path d="M17.1619 3.23674C19.7803 -1.12672 26.5409 -0.919616 28.3973 2.90373C30.2535 6.72727 29.3819 9.49804 28.5076 11.9643C26.5049 17.7976 19.5577 19.7532 14.3817 21.5649C9.09614 19.7149 4.22808 16.536 0.990055 12.2192C-0.281117 10.5245 -0.378368 7.46881 0.991031 4.36369C2.36067 1.25888 7.5613 0.61885 10.1795 4.10979C12.7848 7.58356 14.3661 12.373 14.3817 12.4203C14.3833 12.3729 14.5566 7.57891 17.1619 3.23674Z" fill="white"></path>
  </symbol>
</svg>